<?xml version="1.0" encoding="utf-8"?>
<!-- Generator: Adobe Illustrator 16.0.0, SVG Export Plug-In . SVG Version: 6.00 Build 0)  -->
<!DOCTYPE svg PUBLIC "-//W3C//DTD SVG 1.1//EN" "http://www.w3.org/Graphics/SVG/1.1/DTD/svg11.dtd">
<svg version="1.1" id="圖層_1" xmlns="http://www.w3.org/2000/svg" xmlns:xlink="http://www.w3.org/1999/xlink" x="0px" y="0px"
	 width="78.89px" height="78.89px" viewBox="0 0 78.89 78.89" enable-background="new 0 0 78.89 78.89" xml:space="preserve">
<g>
	<g id="XMLID_6_">
		<g>
			<path fill="#FFFFFF" d="M67.802,56.475c2.219,0,4.001,1.799,4.001,4.009c0,2.218-1.782,4.008-4.001,4.008
				c-2.209,0-4.008-1.79-4.008-4.008C63.794,58.273,65.593,56.475,67.802,56.475z"/>
			<path fill="#A5CC3E" d="M16.314,60.483c0,2.218,1.79,4.008,4,4.008c2.226,0,4.008-1.79,4.008-4.008
				c0-1.686-1.048-3.13-2.524-3.719h-2.952C17.362,57.354,16.314,58.798,16.314,60.483z M73.617,54.346
				c1.621,1.54,2.646,3.718,2.646,6.138c0,4.678-3.791,8.46-8.461,8.46c-4.669,0-8.477-3.782-8.477-8.46
				c0-1.831,0.598-3.517,1.581-4.896l-9.372,0.911v0.266H27.92c0.54,1.13,0.862,2.38,0.862,3.719c0,4.678-3.79,8.46-8.468,8.46
				c-4.669,0-8.46-3.782-8.46-8.46c0-1.339,0.314-2.589,0.863-3.719H0.111l2.444-15.138h4.169l2.355-13.228h42.455v13.228v3.887
				v1.759h16.203l-7.936-30.156c-2.63,0-5.267,0-7.896,0c-1.072,0-1.072-1.661,0-1.661c2.484,0,4.969,0,7.461,0l-1.097-4.154
				l5.146-1.355l3.678,9.033c1.145,0.403,2.193,1.508,2.678,3.016c0.395,1.226,0.33,2.452-0.089,3.404l8.88,21.873h0.218v6.564
				L73.617,54.346z M71.803,60.483c0-2.21-1.782-4.009-4.001-4.009c-2.209,0-4.008,1.799-4.008,4.009
				c0,2.218,1.799,4.008,4.008,4.008C70.021,64.491,71.803,62.701,71.803,60.483z"/>
			<path fill="#FFFFFF" d="M20.314,64.491c-2.21,0-4-1.79-4-4.008c0-1.686,1.048-3.13,2.532-3.719h2.952
				c1.476,0.589,2.524,2.033,2.524,3.719C24.322,62.701,22.54,64.491,20.314,64.491z"/>
		</g>
		<g>
		</g>
	</g>
	<path fill="#FFFFFF" d="M16.049,36.99c9.725,3.665,19.45,7.329,29.169,10.987c1.211,0.458,1.728-1.475,0.532-1.927
		c-9.724-3.662-19.447-7.322-29.169-10.987C15.371,34.609,14.856,36.541,16.049,36.99L16.049,36.99z"/>
</g>
</svg>
