<?xml version="1.0" encoding="utf-8"?>
<!-- Generator: Adobe Illustrator 16.0.0, SVG Export Plug-In . SVG Version: 6.00 Build 0)  -->
<!DOCTYPE svg PUBLIC "-//W3C//DTD SVG 1.1//EN" "http://www.w3.org/Graphics/SVG/1.1/DTD/svg11.dtd">
<svg version="1.1" id="圖層_1" xmlns="http://www.w3.org/2000/svg" xmlns:xlink="http://www.w3.org/1999/xlink" x="0px" y="0px"
	 width="187.632px" height="187.632px" viewBox="0 0 187.632 187.632" enable-background="new 0 0 187.632 187.632"
	 xml:space="preserve">
<g>
	<g>
		<path fill="#76A2D5" d="M94.755,49.979c-1.38-0.726-3.633-0.717-5.008,0.02L28.543,82.793c-1.375,0.736-2.499,2.614-2.499,4.174
			v78.234c0,1.56,1.275,2.835,2.835,2.835h17.335c1.56,0,2.835-1.275,2.835-2.835v-46.332c0-1.56,1.275-2.835,2.835-2.835h28.211
			c1.56,0,2.835,1.275,2.835,2.835v46.332c0,1.56,1.275,2.835,2.835,2.835h71.442c1.56,0,2.835-1.275,2.835-2.835V87.158
			c0-1.56-1.129-3.429-2.509-4.154L94.755,49.979z"/>
	</g>
	<g>
		<path fill="#76A2D5" d="M179.617,63.726c-6.524-3.379-17.058-8.832-17.058-8.832c-1.385-0.717-2.518-2.579-2.518-4.139V22.772
			c0-1.559-1.275-2.834-2.835-2.834h-16.386c-1.56,0-2.835,1.275-2.835,2.834v16.56c0,1.56-0.012,2.83-0.025,2.823
			c0,0,0,0-0.012-0.007c-9.713-5.03-19.428-10.061-29.143-15.091c-4.479-2.319-9.396-5.891-14.326-7.247
			c-4.845-1.333-11.579,3.845-15.592,5.992c-9.312,4.98-18.624,9.96-27.935,14.939c-14.325,7.661-28.65,15.323-42.976,22.983
			c-8.578,4.588-0.962,17.605,7.61,13.021C41.239,63.028,90.038,36.93,90.038,36.93c1.375-0.735,3.633-0.75,5.018-0.033
			c0,0,50.461,26.132,76.951,39.851C180.628,81.211,188.255,68.199,179.617,63.726z"/>
	</g>
</g>
</svg>
