<?xml version="1.0" encoding="utf-8"?>
<!-- Generator: Adobe Illustrator 16.0.0, SVG Export Plug-In . SVG Version: 6.00 Build 0)  -->
<!DOCTYPE svg PUBLIC "-//W3C//DTD SVG 1.1//EN" "http://www.w3.org/Graphics/SVG/1.1/DTD/svg11.dtd">
<svg version="1.1" id="圖層_1" xmlns="http://www.w3.org/2000/svg" xmlns:xlink="http://www.w3.org/1999/xlink" x="0px" y="0px"
	 width="78.89px" height="78.89px" viewBox="0 0 78.89 78.89" enable-background="new 0 0 78.89 78.89" xml:space="preserve">
<path fill="#F7B52C" d="M58.944,12.346c-1.004-2.894-2.009-5.786-3.014-8.679c-0.564-1.624-1.939-2.317-3.595-2.041
	c-3.02,0.506-6.039,1.011-9.06,1.515c-3.712,0.621-2.133,6.252,1.554,5.636c0.965-0.16,1.931-0.321,2.896-0.483
	c-2.386,4.021-4.771,8.04-7.155,12.06c-1.585-0.511-3.278-0.807-5.046-0.855c-9.433-0.263-16.736,7.949-16.989,16.988
	c-0.234,8.4,6.258,15.109,14.066,16.654c0,1.553,0,3.104,0,4.657c-1.876,0-3.754,0-5.632,0c-3.768,0-3.768,5.845,0,5.845
	c1.878,0,3.756,0,5.632,0c0,3.618,0,7.238,0,10.855c0,3.77,5.845,3.77,5.845,0c0-3.617,0-7.237,0-10.855c1.877,0,3.754,0,5.631,0
	c3.77,0,3.77-5.845,0-5.845c-1.877,0-3.754,0-5.631,0c0-1.508,0-3.014,0-4.521c7.817-1.27,13.597-8.413,14.041-16.301
	c0.019-0.156,0.03-0.316,0.025-0.489c0.005-0.17-0.007-0.329-0.024-0.483c-0.287-5.34-2.832-9.953-6.731-12.935
	c2.258-3.805,4.515-7.609,6.772-11.413c0.259,0.747,0.52,1.496,0.779,2.244C54.537,17.437,60.185,15.915,58.944,12.346z
	 M35.524,47.629c-6.208,0.172-10.979-5.196-11.145-11.144c-0.172-6.207,5.197-10.978,11.145-11.144
	c6.207-0.173,10.978,5.195,11.144,11.144C46.494,42.694,41.732,47.456,35.524,47.629z"/>
</svg>
