<?xml version="1.0" encoding="utf-8"?>
<!-- Generator: Adobe Illustrator 16.0.0, SVG Export Plug-In . SVG Version: 6.00 Build 0)  -->
<!DOCTYPE svg PUBLIC "-//W3C//DTD SVG 1.1//EN" "http://www.w3.org/Graphics/SVG/1.1/DTD/svg11.dtd">
<svg version="1.1" id="圖層_1" xmlns="http://www.w3.org/2000/svg" xmlns:xlink="http://www.w3.org/1999/xlink" x="0px" y="0px"
	 width="78.89px" height="78.89px" viewBox="0 0 78.89 78.89" enable-background="new 0 0 78.89 78.89" xml:space="preserve">
<g>
	<path fill="#3E3A39" d="M2.852,41.133L6.62,57.229l3.525-0.827l4.485,19.147l16.213-3.795l-2.143-9.151l6.886-1.612l1.546-6.077
		l1.951-0.454l-1.074-4.585l38.38-8.988l-1.162-4.961l-0.481-2.058l-2.124-9.075L2.852,41.133z M34.4,59.781l-6.031,1.413
		l-0.939-4.007l4.007-0.938l-1.263,2.688l1.315,0.618l1.749-3.729l2.311-0.539L34.4,59.781z"/>
	<polygon fill="#FFFFFF" points="74.92,34.619 16.706,48.254 16.347,46.727 74.566,33.092 	"/>
</g>
</svg>
