<?xml version="1.0" encoding="utf-8"?>
<!-- Generator: Adobe Illustrator 16.0.0, SVG Export Plug-In . SVG Version: 6.00 Build 0)  -->
<!DOCTYPE svg PUBLIC "-//W3C//DTD SVG 1.1//EN" "http://www.w3.org/Graphics/SVG/1.1/DTD/svg11.dtd">
<svg version="1.1" id="圖層_1" xmlns="http://www.w3.org/2000/svg" xmlns:xlink="http://www.w3.org/1999/xlink" x="0px" y="0px"
	 width="78.89px" height="78.89px" viewBox="0 0 78.89 78.89" enable-background="new 0 0 78.89 78.89" xml:space="preserve">
<g>
	<g id="XMLID_11_">
		<g>
			<g>
				<path fill="#595757" d="M30.81,13.258C55.399-0.949,92.009,43.314,65.237,60.8C41.703,76.302,33.874,30.603,17.169,26.068
					c-0.27-0.68-0.598-1.359-0.976-2.048C20.865,21.757,24.702,16.47,30.81,13.258z"/>
				<path fill="#595757" d="M31.843,15.027C54.219,2.656,88.001,41.716,64.943,58.529c-4.619,3.368-9.894,4.576-14.97,1.576
					c-4.975-2.942-8.42-8.407-11.528-13.107c-3.21-4.854-6.204-9.842-9.784-14.442c-1.618-2.078-3.426-4.012-5.514-5.625
					c-0.911-0.706-1.855-1.319-2.878-1.848c-1.731-0.89-1.494-0.518-2.307-2.098c-0.245,0.935-0.49,1.868-0.735,2.805
					C22.608,22.929,26.516,18.017,31.843,15.027c2.305-1.295,0.239-4.834-2.067-3.539c-5.329,2.988-9.252,7.911-14.617,10.761
					c-1.023,0.547-1.229,1.844-0.732,2.806c0.786,1.534,1.008,2.636,2.724,3.147c1.098,0.327,2.089,0.961,3.032,1.596
					c2.423,1.63,4.394,4.081,6.14,6.384c3.907,5.147,7.088,10.814,10.772,16.117c6.459,9.295,15.313,17.361,26.995,11.56
					c12.148-6.035,15.146-19.678,9.898-31.468C68.794,20.719,57.505,10.447,44.552,8.686c-5.16-0.704-10.226,0.285-14.776,2.803
					C27.461,12.768,29.528,16.307,31.843,15.027z"/>
			</g>
		</g>
		<g>
			<path fill="#595757" d="M20.276,31.423c-0.188-2.041-1.034-3.698-1.704-5.596c-0.372-1.052-1.387-1.744-2.521-1.431
				c-1.018,0.28-1.804,1.467-1.432,2.521c0.522,1.476,1.412,2.922,1.559,4.506c0.103,1.112,0.854,2.048,2.049,2.048
				C19.267,33.471,20.379,32.535,20.276,31.423L20.276,31.423z"/>
			<path fill="#595757" d="M15.102,29.596c0.531-1.052,0.953-2.098,1.289-3.228c-1.343-0.182-2.683-0.364-4.025-0.546
				c0.247,5.126-2.977,9.557-2.114,14.759c0.277,1.68,3.059,2.079,3.745,0.49c2.507-5.808,5.351-13.349,2.936-19.612
				c-1.249,0.526-2.497,1.052-3.744,1.58c1.773,2.775,2.934,5.454,2.998,8.801c0.051,2.64,4.148,2.645,4.099,0
				c-0.078-4.062-1.388-7.474-3.56-10.87c-1.196-1.872-4.615-0.677-3.744,1.579c1.999,5.185-0.435,11.613-2.522,16.452
				c1.247,0.164,2.496,0.327,3.743,0.49c-0.751-4.545,2.487-9.003,2.264-13.669c-0.11-2.298-3.354-2.807-4.025-0.543
				c-0.182,0.789-0.475,1.539-0.877,2.247C10.374,29.879,13.909,31.954,15.102,29.596L15.102,29.596z"/>
			<path fill="#595757" d="M12.789,26.585c-3.38,1.223-6.254,2.859-8.34,5.859c-1.142,1.64,0.73,3.272,2.313,3.011
				c3.557-0.589,6.529-2.769,8.339-5.859c1.338-2.285-2.206-4.347-3.539-2.069c-1.319,2.256-3.326,3.553-5.889,3.976
				c0.771,1.005,1.541,2.009,2.312,3.012c1.432-2.055,3.597-3.146,5.892-3.976C16.343,29.646,15.28,25.684,12.789,26.585z"/>
			<path fill="#595757" d="M15.51,27.8c5.701,1.257,9.369,6.25,12.547,10.795c3.722,5.316,6.932,10.97,10.827,16.166
				c3.273,4.365,7.072,8.397,12.238,10.429c5.47,2.153,11.302-0.013,15.891-3.121C91.991,45.146,64.646,9.373,41.757,8.446
				c-5.658-0.228-10.831,2.017-15.399,5.178c-3.309,2.287-6.069,5.272-9.367,7.573c-3.981,2.777-7.924,1.854-11.928-0.422
				c-1.994-1.135-4.221,1.604-2.481,3.218c3.32,3.084,7.353,5.204,11.829,5.994c0-1.317,0-2.635,0-3.953
				c-0.541,0.183-1.082,0.365-1.621,0.551c-2.487,0.847-1.42,4.808,1.088,3.953c0.541-0.187,1.08-0.37,1.623-0.551
				c1.762-0.589,2.142-3.573,0-3.953c-3.793-0.668-7.191-2.312-10.022-4.939c-0.827,1.074-1.655,2.146-2.483,3.22
				c3.646,2.073,7.221,3.268,11.42,2.51c4.072-0.732,7.477-4.188,10.463-6.783c6.353-5.522,13.134-8.782,21.578-6.859
				c12.81,2.918,24.662,15.885,26.018,29.002c1.267,12.239-12.912,25.565-24.158,16.768c-9.759-7.636-13.911-20.614-22.35-29.507
				c-2.586-2.727-5.677-4.784-9.367-5.597C14.023,23.278,12.93,27.23,15.51,27.8L15.51,27.8z"/>
		</g>
	</g>
	<g>
		<path fill="#FFFFFF" d="M57.024,46.224l2.986,3.497l-3.264,2.073l-1.843-4.177c-2.763,1.566-5.037,2.392-6.827,2.479l-2.011-4.213
			c2.498,0.322,5.05-0.344,7.656-2.003c2.425-1.542,3.207-2.992,2.341-4.352c-0.404-0.634-0.998-0.981-1.782-1.04
			c-0.784-0.058-1.665,0.024-2.637,0.244c-0.977,0.223-2.019,0.496-3.131,0.82c-1.114,0.327-2.189,0.549-3.228,0.668
			c-1.039,0.12-2.017,0.048-2.93-0.214c-0.915-0.262-1.675-0.87-2.282-1.823c-0.402-0.634-0.67-1.328-0.803-2.088
			c-0.131-0.76-0.097-1.545,0.101-2.358c0.201-0.811,0.596-1.627,1.188-2.448c0.593-0.822,1.397-1.637,2.411-2.442l-3.083-3.576
			l3.262-2.073l1.965,4.291c2.443-1.363,4.531-2.085,6.261-2.169l1.899,3.664c-3.101,0.38-5.377,1.029-6.827,1.952
			c-2.676,1.701-3.615,3.174-2.823,4.42c0.389,0.611,0.968,0.913,1.741,0.899c0.771-0.011,1.649-0.147,2.629-0.406
			c0.981-0.258,2.043-0.565,3.184-0.926c1.142-0.357,2.256-0.581,3.346-0.673c1.09-0.087,2.132,0.038,3.127,0.376
			c0.994,0.34,1.853,1.075,2.574,2.21c0.33,0.521,0.592,1.12,0.782,1.792c0.189,0.677,0.201,1.409,0.034,2.199
			c-0.165,0.789-0.555,1.64-1.166,2.555C59.263,44.298,58.312,45.244,57.024,46.224z"/>
	</g>
</g>
</svg>
