<?xml version="1.0" encoding="utf-8"?>
<!-- Generator: Adobe Illustrator 16.0.0, SVG Export Plug-In . SVG Version: 6.00 Build 0)  -->
<!DOCTYPE svg PUBLIC "-//W3C//DTD SVG 1.1//EN" "http://www.w3.org/Graphics/SVG/1.1/DTD/svg11.dtd">
<svg version="1.1" id="圖層_1" xmlns="http://www.w3.org/2000/svg" xmlns:xlink="http://www.w3.org/1999/xlink" x="0px" y="0px"
	 width="86.667px" height="86.667px" viewBox="0 0 86.667 86.667" enable-background="new 0 0 86.667 86.667" xml:space="preserve">
<g>
	<path fill="#FAED00" d="M55.604,80.321c-1.038,2.94-4.293,4.496-7.233,3.458l-29.504-10.42c-2.94-1.038-4.496-4.293-3.458-7.233
		l15.729-44.537c1.038-2.94,4.293-4.496,7.233-3.458l29.504,10.42c2.94,1.038,4.496,4.293,3.458,7.233L55.604,80.321z"/>
</g>
<g>
	<path fill="#FAED00" d="M63.478,22.532c-0.534,1.515-3.377,1.903-6.317,0.865l-7.217-2.55c-2.94-1.038-4.908-3.126-4.374-4.64
		s3.377-1.902,6.317-0.864l7.218,2.549C62.045,18.931,64.013,21.019,63.478,22.532z"/>
</g>
<polygon fill="#FFFFFF" points="58.104,45.381 56.284,41.573 44.732,47.096 39.21,35.544 35.403,37.363 40.925,48.916 
	29.373,54.438 31.193,58.245 42.745,52.724 48.268,64.275 52.075,62.455 46.553,50.903 "/>
<g>
	<path fill="#FAED00" d="M62.75,14.529c-0.744,1.369-2.557,2.065-4.026,1.546l-5.267-1.859c-1.47-0.52-2.471-2.204-2.225-3.743
		l0.591-3.684c0.246-1.539,1.651-2.374,3.121-1.854l8.252,2.913c1.47,0.52,2.063,2.065,1.319,3.435L62.75,14.529z"/>
</g>
</svg>
