<?xml version="1.0" encoding="utf-8"?>
<!-- Generator: Adobe Illustrator 16.0.0, SVG Export Plug-In . SVG Version: 6.00 Build 0)  -->
<!DOCTYPE svg PUBLIC "-//W3C//DTD SVG 1.1//EN" "http://www.w3.org/Graphics/SVG/1.1/DTD/svg11.dtd">
<svg version="1.1" id="圖層_1" xmlns="http://www.w3.org/2000/svg" xmlns:xlink="http://www.w3.org/1999/xlink" x="0px" y="0px"
	 width="78.89px" height="78.89px" viewBox="0 0 78.89 78.89" enable-background="new 0 0 78.89 78.89" xml:space="preserve">
<path fill="#FFFFFF" d="M54.979,52.088c1.893,0,3.438,1.515,3.438,3.438c0,1.896-1.545,3.411-3.438,3.411
	c-1.896,0-3.44-1.516-3.44-3.411C51.538,53.603,53.083,52.088,54.979,52.088z"/>
<path fill="#0DAC67" d="M54.979,52.088c-1.896,0-3.44,1.515-3.44,3.438c0,1.896,1.545,3.411,3.44,3.411
	c1.893,0,3.438-1.516,3.438-3.411C58.416,53.603,56.871,52.088,54.979,52.088z M62.208,55.526c0,3.953-3.25,7.203-7.229,7.203
	c-3.953,0-7.203-3.25-7.203-7.203c0-3.983,3.25-7.231,7.203-7.231C58.958,48.295,62.208,51.543,62.208,55.526z"/>
<path fill="#FFFFFF" d="M16.497,55.361c0,1.899-1.544,3.415-3.441,3.415c-1.896,0-3.438-1.516-3.438-3.415
	c0-1.919,1.542-3.438,3.438-3.438C14.953,51.924,16.497,53.442,16.497,55.361z"/>
<path fill="#0DAC67" d="M20.26,55.361c0,3.957-3.223,7.205-7.205,7.205c-3.98,0-7.203-3.248-7.203-7.205
	c0-3.978,3.223-7.229,7.203-7.229C17.037,48.132,20.26,51.384,20.26,55.361z M13.056,51.924c-1.896,0-3.438,1.519-3.438,3.438
	c0,1.899,1.542,3.415,3.438,3.415c1.897,0,3.441-1.516,3.441-3.415C16.497,53.442,14.953,51.924,13.056,51.924z"/>
<path fill="#FFFFFF" d="M36.427,38.98C27.03,34.485,17.66,29.963,8.265,25.467c-1.462-0.703-0.191-2.898,1.298-2.195
	c9.37,4.497,18.767,9.019,28.14,13.514C39.19,37.489,37.89,39.686,36.427,38.98z"/>
<path fill="#0DAC67" d="M73.826,39.442c0-0.191-0.056-0.382-0.163-0.599c-2.274-4.982-4.522-9.965-6.797-14.947
	c-0.243-0.598-1.002-0.947-1.624-0.947c-7.23,0-14.489,0-21.721,0v-7.664H1.603v26.159v0.837v13.08h2.817
	c0.108-4.71,3.924-8.502,8.636-8.502c4.74,0,8.558,3.792,8.667,8.502h14.486v-0.026h7.312h1.761h1.056
	c0.083-4.684,3.929-8.476,8.641-8.476c4.739,0,8.556,3.792,8.663,8.476h14.49V42.987v-1.57v-1.975H73.826z M36.427,38.98
	C27.03,34.485,17.66,29.963,8.265,25.467c-1.462-0.703-0.191-2.898,1.298-2.195c9.37,4.497,18.767,9.019,28.14,13.514
	C39.19,37.489,37.89,39.686,36.427,38.98z M43.521,39.442V26.739c6.826,0,13.705,0,20.528,0c1.896,4.224,3.846,8.477,5.741,12.703
	H43.521z"/>
</svg>
