<?xml version="1.0" encoding="utf-8"?>
<!-- Generator: Adobe Illustrator 16.0.0, SVG Export Plug-In . SVG Version: 6.00 Build 0)  -->
<!DOCTYPE svg PUBLIC "-//W3C//DTD SVG 1.1//EN" "http://www.w3.org/Graphics/SVG/1.1/DTD/svg11.dtd">
<svg version="1.1" id="圖層_1" xmlns="http://www.w3.org/2000/svg" xmlns:xlink="http://www.w3.org/1999/xlink" x="0px" y="0px"
	 width="78.89px" height="78.89px" viewBox="0 0 78.89 78.89" enable-background="new 0 0 78.89 78.89" xml:space="preserve">
<g>
	<path fill-rule="evenodd" clip-rule="evenodd" fill="#231815" d="M77.296,61.228c0,0-9.01-13.495-20.833-10.09
		c-2.956,0.852-4.068,3.1-4.068,3.1s4.136,5.019,13.155,7.969C68.352,63.121,77.296,61.228,77.296,61.228z"/>
	<path fill-rule="evenodd" clip-rule="evenodd" fill="#231815" d="M60.162,73.23c0,0,4.129-13.055-4.352-19.043
		c-2.119-1.497-4.188-1.044-4.188-1.044s-1.122,5.373,1.695,12.869C54.19,68.34,60.162,73.23,60.162,73.23z"/>
	<g>
		<path d="M31.745,2.005c-12.88,0-23.854,9.334-28.014,22.402h56.032C55.603,11.339,44.632,2.005,31.745,2.005z"/>
		<path d="M31.745,70.048c14.608,0,26.752-12.001,29.303-27.832H2.447C4.998,58.047,17.142,70.048,31.745,70.048z"/>
		<path fill="#FFFFFF" d="M59.764,24.407H3.731c-1.154,3.625-1.786,7.537-1.786,11.619c0,2.113,0.178,4.18,0.502,6.189h58.601
			c0.324-2.01,0.502-4.076,0.502-6.189C61.55,31.944,60.918,28.032,59.764,24.407z"/>
	</g>
	
		<ellipse transform="matrix(0.9564 0.2922 -0.2922 0.9564 10.6196 -4.487)" fill-rule="evenodd" clip-rule="evenodd" fill="#231815" cx="20.332" cy="33.311" rx="6.959" ry="3.52"/>
	
		<ellipse transform="matrix(0.9624 -0.2718 0.2718 0.9624 -7.4078 13.1315)" fill-rule="evenodd" clip-rule="evenodd" fill="#231815" cx="43.707" cy="33.311" rx="6.959" ry="3.521"/>
</g>
<path fill="#FFFFFF" d="M24.4,56.971c5.472,3.776,12.632,3.733,16.904-1.716c0.95-1.21-0.747-2.93-1.705-1.708
	c-3.649,4.655-9.366,4.526-13.981,1.343C24.334,54.001,23.13,56.094,24.4,56.971L24.4,56.971z"/>
</svg>
